<svg width="512" height="512" viewBox="0 0 512 512" xmlns="http://www.w3.org/2000/svg">
  <!-- Outer Ring with gaps for dots -->
  <circle cx="256" cy="256" r="230" fill="none" stroke="#0a1d2e" stroke-width="15" stroke-dasharray="266.28 95" stroke-dashoffset="47.5" stroke-linecap="round" />

  <!-- Four Outer Dots -->
  <circle cx="256" cy="26" r="18" fill="#0a1d2e" />
  <circle cx="486" cy="256" r="18" fill="#0a1d2e" />
  <circle cx="256" cy="486" r="18" fill="#0a1d2e" />
  <circle cx="26" cy="256" r="18" fill="#0a1d2e" />

  <!-- Inner Yin-Yang Split Shapes -->
  <!-- Orange Section (Top-Left) -->
  <path d="M 256 56 A 200 200 0 0 0 256 456 A 100 100 0 0 0 256 256 A 100 100 0 0 1 256 56 Z" fill="#e66a1f" />
  <!-- Navy Section (Bottom-Right) -->
  <path d="M 256 56 A 200 200 0 0 1 256 456 A 100 100 0 0 0 256 256 A 100 100 0 0 1 256 56 Z" fill="#0a1d2e" />

  <!-- Data Visualization Elements: Orange Side (Navy Sliders) -->
  <g stroke="#0a1d2e" stroke-width="10" stroke-linecap="round" fill="#0a1d2e">
    <line x1="120" y1="230" x2="120" y2="340" />
    <circle cx="120" cy="285" r="12" stroke="none" />

    <line x1="160" y1="170" x2="160" y2="280" />
    <circle cx="160" cy="225" r="12" stroke="none" />

    <line x1="200" y1="120" x2="200" y2="230" />
    <circle cx="200" cy="175" r="12" stroke="none" />

    <line x1="240" y1="110" x2="240" y2="220" />
    <circle cx="240" cy="165" r="12" stroke="none" />

    <line x1="280" y1="120" x2="280" y2="200" />
    <circle cx="280" cy="160" r="12" stroke="none" />
  </g>

  <!-- Data Visualization Elements: Navy Side (White Sliders & Line Graph) -->
  <g stroke="#ffffff" stroke-width="10" stroke-linecap="round" stroke-linejoin="round" fill="#ffffff">
    <!-- Vertical Bars -->
    <line x1="230" y1="340" x2="230" y2="410" />
    <line x1="270" y1="300" x2="270" y2="400" />
    <line x1="310" y1="290" x2="310" y2="370" />
    <line x1="350" y1="230" x2="350" y2="320" />
    <line x1="390" y1="190" x2="390" y2="270" />

    <!-- Connecting Line Graph -->
    <polyline points="230,355 270,330 310,290 350,250 390,200" fill="none" />

    <!-- Slider Knobs -->
    <circle cx="230" cy="355" r="12" stroke="none" />
    <circle cx="270" cy="330" r="12" stroke="none" />
    <circle cx="310" cy="290" r="12" stroke="none" />
    <circle cx="350" cy="250" r="12" stroke="none" />
    <circle cx="390" cy="200" r="12" stroke="none" />
  </g>
</svg>